<svg width="15" height="13" viewBox="0 0 15 13" fill="none" xmlns="http://www.w3.org/2000/svg">
<g clip-path="url(#clip0_4_2)">
<path d="M13.4471 1.61593C12.7677 0.898143 11.8347 0.5 10.8097 0.5C10.0535 0.5 9.36596 0.730671 8.75382 1.19186L8.75379 1.19188C8.44229 1.42654 8.15629 1.71651 7.90146 2.05977L7.50002 2.60053L7.09855 2.05979C6.84362 1.71642 6.55772 1.42655 6.24632 1.19189L13.4471 1.61593ZM13.4471 1.61593C14.1194 2.32647 14.5 3.30799 14.5 4.39134C14.5 5.47938 14.0906 6.49986 13.1315 7.62736L13.4471 1.61593ZM9.4687 10.9717L9.46876 10.9717C10.9914 9.70763 12.2577 8.65434 13.1315 7.6274L9.4687 10.9717ZM9.4687 10.9717L9.45446 10.9836C8.94218 11.409 8.36014 11.8923 7.7557 12.407L7.75532 12.4073M9.4687 10.9717L7.75532 12.4073M7.75532 12.4073C7.68658 12.466 7.59615 12.5 7.5 12.5C7.40383 12.5 7.31324 12.4659 7.24477 12.4075L7.24461 12.4074M7.75532 12.4073L7.24461 12.4074M7.24461 12.4074C6.6345 11.8876 6.04692 11.3998 5.5309 10.9714L5.53089 10.9714M7.24461 12.4074L5.53089 10.9714M5.53089 10.9714C4.00838 9.7075 2.74217 8.65432 1.86846 7.62728L1.86844 7.62726M5.53089 10.9714L1.86844 7.62726M1.86844 7.62726C0.909284 6.49991 0.5 5.47943 0.5 4.39123M1.86844 7.62726L0.5 4.39123M4.19025 0.5C3.16533 0.5 2.23249 0.898121 1.55311 1.6159L4.19025 0.5ZM4.19025 0.5C4.94643 0.5 5.634 0.730654 6.24626 1.19184L4.19025 0.5ZM0.5 4.39123C0.5 3.30799 0.880651 2.32647 1.5531 1.61592L0.5 4.39123Z" stroke="#888888"/>
</g>
<defs>
<clipPath id="clip0_4_2">
<rect width="15" height="13" fill="white"/>
</clipPath>
</defs>
</svg>
